<?xml version="1.0" encoding="iso-8859-1"?>
<!-- Uploaded to: SVG Repo, www.svgrepo.com, Generator: SVG Repo Mixer Tools -->
<svg fill="#000000" height="800px" width="800px" version="1.1" id="Layer_1" xmlns="http://www.w3.org/2000/svg" xmlns:xlink="http://www.w3.org/1999/xlink" 
	 viewBox="0 0 512 512" xml:space="preserve">
<g>
	<g>
		<g>
			<circle cx="477.869" cy="264.534" r="8.533"/>
			<circle cx="435.203" cy="230.401" r="8.533"/>
			<circle cx="435.203" cy="170.668" r="8.533"/>
			<circle cx="469.336" cy="213.334" r="8.533"/>
			<path d="M366.932,417.706c21.828-1.818,41.719-10.462,57.523-23.851l-57.523-57.523V417.706z"/>
			<path d="M349.869,417.7v-81.365l-57.523,57.523C308.158,407.238,328.041,415.891,349.869,417.7z"/>
			<path d="M503.467,307.2h-25.6v8.533c0,32.811-13.303,62.566-34.79,84.173c-0.085,0.094-0.111,0.213-0.196,0.307
				c-0.094,0.085-0.213,0.111-0.307,0.196c-21.606,21.487-51.362,34.79-84.173,34.79s-62.558-13.303-84.173-34.79
				c-0.094-0.085-0.213-0.111-0.299-0.196c-0.094-0.094-0.119-0.213-0.205-0.307c-19.593-19.712-32.265-46.234-34.355-75.639h17.024
				c1.818,21.828,10.505,41.711,23.893,57.523l57.515-57.523H379l57.523,57.523c15.113-17.852,24.277-40.892,24.277-66.057V307.2
				h-59.733V88.883c0-2.918-1.493-5.641-3.959-7.202C357.47,56.525,307.362,42.667,256,42.667
				c-106.556,0-196.591,57.02-217.404,136.542l-4.463-0.009C15.309,179.2,0,194.517,0,213.333c0,18.825,15.309,34.133,34.133,34.133
				h4.463c18.202,69.504,89.745,122.487,181.197,133.999c24.695,51.857,77.457,87.868,138.607,87.868
				c84.693,0,153.6-68.907,153.6-153.6C512,311.023,508.186,307.2,503.467,307.2z M213.333,307.2c-4.71,0-8.533,3.823-8.533,8.533
				c0,4.77,0.29,9.498,0.725,14.2c0.128,1.476,0.341,2.935,0.521,4.403c0.384,3.2,0.87,6.391,1.459,9.557
				c0.316,1.681,0.631,3.345,0.998,5.001c0.657,2.953,1.434,5.879,2.27,8.798c0.461,1.613,0.862,3.243,1.374,4.83
				c0.077,0.239,0.128,0.486,0.205,0.725C130.978,349.858,66.697,299.401,53.7,237.193c-0.819-3.959-4.309-6.793-8.346-6.793H34.133
				c-9.404,0-17.067-7.654-17.067-17.067s7.663-17.067,17.05-17.067l11.221,0.026h0.017c4.036,0,7.526-2.833,8.346-6.793
				C69.137,115.524,156.1,59.733,256,59.733c46.456,0,91.699,12.015,128,33.903V307.2H379h-41.199H256h-17.067H213.333z"/>
		</g>
	</g>
</g>
</svg>