<?xml version="1.0" encoding="iso-8859-1"?>
<!-- Uploaded to: SVG Repo, www.svgrepo.com, Generator: SVG Repo Mixer Tools -->
<svg fill="#000000" version="1.1" id="Capa_1" xmlns="http://www.w3.org/2000/svg" xmlns:xlink="http://www.w3.org/1999/xlink" 
	 viewBox="0 0 480 480" xml:space="preserve">
<g id="XMLID_932_">
	<path id="XMLID_933_" d="M209.831,129.724C208.483,107.774,198.8,88.171,184,73.89V0H66v73.89
		c-14.8,14.281-24.483,33.884-25.831,55.834L25.194,373.791C25.065,375.882,25,377.971,25,380c0,55.14,44.86,100,100,100
		s100-44.86,100-100c0-2.029-0.065-4.118-0.193-6.208L209.831,129.724z M164,59.495c-8.885-4.606-18.676-7.665-29-8.884V20h29
		V59.495z M86,20h29v30.611c-10.324,1.219-20.115,4.278-29,8.884V20z M45,380c0-1.622,0.052-3.298,0.156-4.983L60.132,130.95
		c1.536-25.017,17.223-46.051,38.959-55.537c-5.684,15.013-8.633,34.91-9.039,54.72L85.06,374.201C85.021,376.12,85,378.052,85,380
		c0,27.19,3.99,55.55,12.41,75.094C66.852,443.831,45,414.42,45,380z M113.274,440.478C107.938,424.471,105,402.993,105,380
		c0-1.812,0.02-3.609,0.056-5.391l4.992-244.067c0.78-38.136,10.558-57.827,14.952-60.406c4.393,2.579,14.171,22.271,14.952,60.406
		l4.992,244.066C144.98,376.391,145,378.188,145,380c0,22.993-2.938,44.471-8.274,60.478C131.35,456.606,125.858,460,125,460
		S118.65,456.606,113.274,440.478z M152.59,455.094C161.01,435.55,165,407.19,165,380c0-1.948-0.021-3.88-0.06-5.8l-4.992-244.067
		c-0.405-19.81-3.355-39.707-9.039-54.72c21.736,9.486,37.423,30.52,38.959,55.537l14.976,244.068
		c0.104,1.684,0.156,3.36,0.156,4.982C205,414.42,183.148,443.831,152.59,455.094z"/>
	<rect id="XMLID_940_" x="320" y="379.979" width="20" height="20"/>
	<rect id="XMLID_941_" x="320" y="317.49" width="20" height="20"/>
	<rect id="XMLID_942_" x="320" y="255" width="20" height="20"/>
	<rect id="XMLID_943_" x="320" y="192.51" width="20" height="20"/>
	<rect id="XMLID_944_" x="320" y="130.021" width="20" height="20"/>
	<rect id="XMLID_945_" x="370" y="379.979" width="20" height="20"/>
	<rect id="XMLID_946_" x="370" y="317.49" width="20" height="20"/>
	<rect id="XMLID_947_" x="370" y="255" width="20" height="20"/>
	<rect id="XMLID_948_" x="370" y="192.51" width="20" height="20"/>
	<rect id="XMLID_949_" x="370" y="130.021" width="20" height="20"/>
	<path id="XMLID_950_" d="M454.807,373.792l-14.976-244.068C438.483,107.774,428.8,88.171,414,73.89V0H296v73.89
		c-14.8,14.281-24.483,33.884-25.831,55.834l-14.975,244.066c-0.129,2.091-0.194,4.18-0.194,6.209c0,55.14,44.86,100,100,100
		s100-44.86,100-100C455,377.971,454.935,375.882,454.807,373.792z M316,20h78v39.495C382.288,53.423,369.014,50,355,50
		s-27.288,3.423-39,9.495V20z M355,460c-44.112,0-80-35.888-80-80c0-1.622,0.052-3.298,0.156-4.983l14.976-244.067
		C292.23,96.772,320.724,70,355,70s62.77,26.772,64.868,60.949l14.976,244.068c0.104,1.684,0.156,3.36,0.156,4.982
		C435,424.112,399.112,460,355,460z"/>
</g>
</svg>